<svg width="420" height="414" viewBox="0 0 420 414" fill="none" xmlns="http://www.w3.org/2000/svg">
<path d="M238.626 369.779L340.854 54.7346L352.68 58.7735L245.514 388.077L246.617 391.007L205.244 400.085L74.1158 60.5257L111.476 31.9319L238.626 369.779Z" fill="#F8F4EE"/>
<path fill-rule="evenodd" clip-rule="evenodd" d="M225.671 0C226.156 3.25109e-05 228.098 0.0116777 232.162 0.390674C234.47 0.606235 236.948 1.20806 239.414 1.95912C263.228 4.55288 286.375 11.1302 307.753 21.4641C311.584 22.5238 320.65 25.8044 327.01 29.8808C332.654 33.4984 336.024 36.3063 338.253 38.6595C339.177 39.6359 339.864 40.5051 340.418 41.2563C355.61 52.5702 369.308 66.1613 380.988 81.8864C382.712 83.4302 383.718 85.3446 384.072 85.9942C384.131 86.1026 384.217 86.2817 384.32 86.5113C386.774 90.0219 389.148 93.6243 391.399 97.3353C415.282 136.703 423.724 181.177 418.527 224.109C418.496 226.466 418.459 228.631 418.394 230.348C418.291 233.111 418.132 235.387 417.603 237.059C417.318 237.957 416.834 238.996 415.975 239.937C409.045 274.368 393.278 307.235 369.619 335.009C369.425 335.33 369.232 335.659 369.018 335.98C367.541 338.193 365.625 340.321 363.048 342.38C349.529 356.846 333.753 369.748 315.843 380.505L311.131 383.257C286.011 397.521 259.226 406.258 232.3 409.846C230.693 411.208 228.532 412.515 225.758 412.805C223.682 413.02 221.103 412.858 216.144 411.38C216.08 411.383 216.017 411.388 215.953 411.391C215.039 412.634 213.864 413.235 213.337 413.454C211.878 414.059 210.403 414.005 209.994 413.994C208.639 413.958 206.92 413.701 205.213 413.379C203.094 412.979 200.542 412.378 197.822 411.65C133.596 409.818 72.27 379.115 34.7556 324.305C34.3582 323.977 34.0877 323.691 33.9703 323.559C33.7138 323.27 33.509 323.001 33.4044 322.858C32.7194 321.92 32.216 320.873 31.7702 319.824C30.7646 318.266 29.7757 316.691 28.808 315.096C15.7663 293.598 7.33446 270.574 3.20478 247.113C0.924032 240.468 0.144033 234.227 0.0751142 227.252C0.0273448 222.404 0.124706 218.468 0.23102 215.893C0.168777 212.03 0.209571 208.168 0.369603 204.311C0.0113802 200.267 5.57699e-05 198.011 4.82862e-05 197.216C4.00118e-05 197.126 -0.000891606 196.981 0.00582259 196.825C0.00908362 196.75 0.0169596 196.606 0.0346941 196.434C0.0396056 196.385 0.0883751 195.834 0.300312 195.188C0.325534 195.11 0.535124 194.425 1.09717 193.631C7.14701 129.656 43.5119 68.483 104.371 31.9319L109.088 29.1799C118.857 23.6331 128.881 18.9298 139.063 15.0295C140.518 14.2925 141.972 13.562 143.324 12.8808C147.499 10.7768 152.918 8.94674 155.352 8.18692C157.015 7.66782 158.567 7.43841 160.681 7.25045C161.753 7.15518 163.079 7.08271 164.747 6.97468C170.943 5.44656 177.169 4.19484 183.409 3.22881C183.847 3.09379 184.328 2.94949 184.87 2.81515C188.678 1.87086 195.223 1.10485 202.21 1.15479C209.059 0.704409 215.901 0.582822 222.709 0.787093C223.579 0.285191 224.593 0.000152912 225.671 0ZM302.163 58.3885C252.257 20.9533 188.97 9.63805 134.408 30.4726C134.115 30.6054 133.84 30.7392 133.588 30.846C133.376 30.936 133.131 31.0376 132.884 31.1275C132.794 31.1601 132.552 31.235 132.232 31.3229C124.618 34.3629 117.181 38.031 109.983 42.3537C38.9192 85.0347 13.3568 177.659 46.3908 261.194C49.8957 265.51 51.6517 268.447 52.3094 270.289C52.3484 270.396 52.8966 271.775 52.5231 273.506C52.4559 273.816 52.346 274.154 52.1997 274.506C55.251 280.897 58.6494 287.221 62.4202 293.436C113.606 377.804 212.522 411.989 290.788 377.385C292.033 376.625 293.328 375.915 294.611 375.369C295.532 374.977 296.402 374.656 297.197 374.381C300.805 372.583 304.372 370.647 307.874 368.543C319.481 361.573 329.864 353.258 338.986 343.879C339.104 343.71 339.208 343.587 339.269 343.512L339.8 342.92C339.969 342.747 340.119 342.604 340.222 342.506C340.417 342.321 340.645 342.114 340.897 341.886C358.717 322.9 371.467 299.718 378.713 274.374C378.771 274.09 378.838 273.713 378.956 272.949C379.077 272.164 379.232 271.146 379.481 269.835C379.801 268.154 380.59 265.756 381.52 263.228C384.467 249.678 385.882 235.62 385.717 221.34C385.695 220.939 385.681 220.517 385.654 220.076C385.506 217.644 385.454 215.359 385.458 213.291C383.929 184.495 375.965 155.04 361.032 127.262C358.819 124.51 356.574 121.121 353.942 116.743C352.37 114.13 350.592 110.684 348.993 107.476C339.462 93.5461 328.579 81.1506 316.697 70.3845C314.317 69.2213 311.891 67.6552 310.236 66.4778C307.154 64.2845 305.41 62.3187 303.665 60.1983C303.181 59.6107 302.685 59.02 302.163 58.3885Z" fill="#F8F4EE"/>
</svg>
