<svg width="1392" height="202" viewBox="0 0 1392 202" fill="none" xmlns="http://www.w3.org/2000/svg">
<path d="M1186.94 193.491H1151.74V56.2377H1186.94V193.491Z" fill="currentColor"/>
<path d="M1016.25 56.2377C1084.28 56.2377 1115.55 69.2158 1115.55 100.481C1115.55 135.876 1076.42 146.101 1034.93 146.101C1019.79 146.101 1004.25 144.725 990.293 142.758C1049.28 145.708 1080.16 133.32 1080.16 99.1047C1080.16 65.0864 1042.99 60.3671 1016.25 60.5637H1009.76C985.377 60.5637 985.377 60.5637 985.377 76.8847V193.491H950.179V56.2377H1016.25Z" fill="currentColor"/>
<path d="M907.371 146.298H907.567C908.157 179.136 864.897 195.654 821.44 195.654C778.18 195.654 734.724 179.136 735.314 146.298V56.2377H770.512V146.298C771.298 172.057 802.957 184.052 834.812 184.052C868.437 184.052 902.455 170.878 901.668 146.298H901.472V56.2377H907.371V146.298Z" fill="currentColor"/>
<path d="M661.682 0L617.635 36.7713L573.589 0L617.635 16.5176L661.682 0ZM568.083 77.4753C568.083 106.971 699.829 101.072 699.829 156.72C699.829 182.283 666.205 194.475 620.978 194.475C594.826 194.475 564.937 190.345 535.245 182.48V150.624C559.828 170.288 587.943 189.756 619.798 189.756C644.968 189.756 665.811 179.924 665.811 164.979C665.811 128.994 537.801 136.663 537.801 89.077C537.801 64.104 573.982 55.6485 611.343 55.6485C640.248 55.6485 669.744 60.7611 684.098 67.0535V87.6997C656.18 65.0864 634.546 59.5813 606.23 59.5813C584.994 59.5813 568.083 66.6603 568.083 77.4753Z" fill="currentColor"/>
<path d="M1260.25 76.0991C1260.25 105.595 1392 99.6957 1392 155.344C1392 180.907 1358.37 193.099 1313.15 193.099C1287 193.099 1257.11 188.969 1227.42 181.104V149.248C1252 168.911 1280.11 188.379 1311.97 188.379C1337.14 188.379 1357.98 178.547 1357.98 163.603C1357.98 127.618 1229.97 135.287 1229.97 87.7008C1229.97 62.7278 1266.15 54.2723 1303.51 54.2723C1332.42 54.2723 1361.91 59.3849 1376.27 65.6773V86.3235C1348.35 63.7102 1326.72 58.2051 1298.4 58.2051C1277.16 58.2051 1260.25 65.2841 1260.25 76.0991Z" fill="currentColor"/>
<path d="M466.173 171.271C474.825 176.383 485.051 179.53 493.703 179.53C498.422 179.53 502.551 178.743 506.091 176.58C494.686 187.985 480.725 195.457 465.19 195.457C451.819 195.457 437.268 189.951 421.734 176.777C402.463 160.652 386.732 144.725 362.546 142.758C413.868 142.758 452.409 133.32 452.409 99.1047C452.409 65.0864 415.245 60.3671 388.502 60.5637H382.013C357.63 60.5637 357.63 60.5637 357.63 76.8847V193.491H322.432V56.2377H388.502C456.538 56.2377 487.803 69.2158 487.803 100.481C487.803 126.831 452.802 142.955 413.082 142.955C435.891 142.955 450.246 162.029 466.173 171.271Z" fill="currentColor"/>
<path d="M277.421 193.491H242.223V56.2377H277.421V193.491Z" fill="currentColor"/>
<path d="M203.519 56.2377H211.384L101.661 201.356L0 56.2377H39.9172L118.965 168.321L203.519 56.2377Z" fill="currentColor"/>
</svg>
