<svg xmlns="http://www.w3.org/2000/svg" version="1.1" xmlns:xlink="http://www.w3.org/1999/xlink" width="650" height="642"><svg xmlns="http://www.w3.org/2000/svg" version="1.1" xmlns:xlink="http://www.w3.org/1999/xlink" width="650" height="642"><svg width="650" height="642" viewBox="0 0 650 642" fill="none" xmlns="http://www.w3.org/2000/svg">
<path d="M369.302 573.425L527.512 84.8783L545.814 91.1415L379.963 601.801L381.67 606.345L317.64 620.421L114.703 93.8588L172.522 49.5175L369.302 573.425Z" fill="#F8F4EE"></path>
<path fill-rule="evenodd" clip-rule="evenodd" d="M349.253 0C350.003 5.04154e-05 353.009 0.0181089 359.298 0.605828C362.87 0.940104 366.705 1.87337 370.522 3.03805C407.376 7.06027 443.199 17.2599 476.284 33.2849C482.214 34.9281 496.244 40.0155 506.087 46.3369C514.822 51.9467 520.037 56.3011 523.486 59.9502C524.917 61.4644 525.979 62.8123 526.838 63.9772C550.349 81.5219 571.548 102.598 589.625 126.983C592.292 129.377 593.849 132.346 594.397 133.353C594.488 133.521 594.622 133.799 594.781 134.155C598.579 139.599 602.253 145.185 605.737 150.94C642.698 211.989 655.763 280.955 647.72 347.531C647.672 351.186 647.614 354.544 647.515 357.207C647.354 361.49 647.109 365.021 646.291 367.613C645.85 369.006 645.101 370.617 643.771 372.076C633.046 425.47 608.644 476.436 572.029 519.506C571.729 520.005 571.43 520.515 571.1 521.012C568.813 524.445 565.848 527.744 561.859 530.937C540.937 553.369 516.522 573.378 488.804 590.059L481.512 594.326C442.637 616.446 401.183 629.994 359.512 635.558C357.025 637.671 353.68 639.698 349.387 640.146C346.174 640.481 342.184 640.229 334.508 637.937C334.41 637.942 334.311 637.949 334.213 637.955C332.799 639.882 330.98 640.813 330.165 641.153C327.906 642.092 325.624 642.007 324.991 641.99C322.893 641.935 320.233 641.537 317.591 641.037C314.313 640.417 310.363 639.484 306.153 638.355C206.756 635.515 111.846 587.904 53.7884 502.908C53.1734 502.4 52.7548 501.955 52.573 501.75C52.1762 501.303 51.8591 500.885 51.6972 500.663C50.6371 499.209 49.8581 497.585 49.1682 495.959C47.6118 493.543 46.0814 491.1 44.5839 488.627C24.4003 455.289 11.3509 419.585 4.95979 383.204C1.43005 372.899 0.222908 363.221 0.116248 352.405C0.0423194 344.888 0.192997 338.784 0.357531 334.791C0.261203 328.8 0.324336 322.811 0.572005 316.83C0.0176123 310.559 8.63106e-05 307.061 7.47286e-05 305.827C6.19231e-05 305.688 -0.00137987 305.464 0.00901114 305.221C0.014058 305.105 0.026247 304.882 0.0536932 304.616C0.0612944 304.54 0.136771 303.685 0.464768 302.682C0.503803 302.562 0.828168 301.499 1.69799 300.268C11.0608 201.06 67.3398 106.198 161.526 49.5175L168.827 45.25C183.945 36.6485 199.458 29.3549 215.216 23.3066C217.468 22.1637 219.719 21.0309 221.811 19.9745C228.272 16.7118 236.658 13.8739 240.425 12.6957C243 11.8907 245.402 11.5349 248.674 11.2435C250.333 11.0957 252.385 10.9833 254.965 10.8158C264.555 8.44611 274.19 6.50505 283.847 5.00699C284.526 4.79762 285.27 4.57385 286.108 4.36552C292.002 2.90119 302.131 1.71331 312.944 1.79076C323.544 1.09234 334.132 0.903796 344.669 1.22056C346.016 0.442252 347.584 0.000237125 349.253 0ZM467.634 90.5445C390.398 32.4928 292.453 14.946 208.013 47.2546C207.558 47.4605 207.134 47.6681 206.744 47.8337C206.416 47.9732 206.036 48.1308 205.654 48.2702C205.515 48.3207 205.14 48.4368 204.644 48.5731C192.862 53.2875 181.351 58.9757 170.212 65.6789C60.2321 131.865 20.6713 275.501 71.7952 405.04C77.2195 411.733 79.9372 416.287 80.9551 419.144C81.0154 419.31 81.8638 421.448 81.2857 424.133C81.1817 424.614 81.0117 425.137 80.7853 425.683C85.5074 435.593 90.7668 445.4 96.6027 455.039C175.819 585.87 328.904 638.882 450.029 585.221C451.956 584.042 453.96 582.941 455.945 582.094C457.371 581.485 458.717 580.988 459.948 580.561C465.532 577.774 471.052 574.771 476.472 571.509C494.435 560.699 510.503 547.806 524.621 533.262C524.803 533 524.965 532.809 525.059 532.692L525.881 531.774C526.142 531.507 526.374 531.284 526.534 531.133C526.836 530.846 527.188 530.524 527.579 530.171C555.157 500.729 574.89 464.781 586.104 425.478C586.193 425.037 586.297 424.453 586.479 423.269C586.667 422.051 586.907 420.472 587.292 418.44C587.787 415.834 589.009 412.115 590.447 408.194C595.008 387.181 597.198 365.381 596.944 343.237C596.91 342.616 596.887 341.962 596.845 341.277C596.617 337.507 596.536 333.962 596.542 330.755C594.176 286.101 581.85 240.424 558.74 197.348C555.314 193.081 551.841 187.825 547.767 181.036C545.335 176.984 542.583 171.64 540.108 166.665C525.357 145.064 508.515 125.842 490.127 109.147C486.442 107.343 482.688 104.915 480.127 103.089C475.357 99.6876 472.658 96.6392 469.957 93.3509C469.209 92.4398 468.441 91.5238 467.634 90.5445Z" fill="#F8F4EE"></path>
</svg></svg><style>@media (prefers-color-scheme: light) { :root { filter: contrast(1) brightness(0.1); } }
@media (prefers-color-scheme: dark) { :root { filter: contrast(1) brightness(1); } }
</style></svg>